{"title":"The Godfather - [crime] - (1972) - BDRip x264 (subs) - [=Faith=]","uid":12101495,"size":2054377188,"categoryP":"video","categoryS":"movies","magnet":"?xt=urn:btih:140f64d4da5858d23db38ba0dce4578bace55c3b&amp;dn=The+Godfather+-+%5Bcrime%5D+-+%281972%29+-+BDRip+x264+%28subs%29+-+%5B%3DFaith%3D%5D&amp;tr=udp%3A%2F%2Ftracker.openbittorrent.com%3A80&amp;tr=udp%3A%2F%2Fopen.demonii.com%3A1337&amp;tr=udp%3A%2F%2Ftracker.coppersurfer.tk%3A6969&amp;tr=udp%3A%2F%2Fexodus.desync.com%3A6969","seeders":8,"leechers":3,"uploader":"Faithwyn","files":6,"time":1436331320,"description":"  The Godfather 1972\n\n\n  The aging patriarch of an organized crime dynasty transfers\n  control of his clandestine empire to his reluctant son.\n\n\nThe Film:\n\nDirected by: Francis Ford Coppola\nProduced by: Albert S. Ruddy\nScreenplay by:\n  Mario Puzo\n  Francis Ford Coppola\nBased on: The Godfather by Mario Puzo\nStarring:\n  Marlon Brando\n  Al Pacino\n  James Caan\n  Richard Castellano\n  Robert Duvall\n  Sterling Hayden\n  John Marley\n  Richard Conte\n  Diane Keaton\nMusic by: Nino Rota\nCinematography: Gordon Willis\nEdited by:\n  William Reynolds\n  Peter Zinner\nProduction: Alfran Productions\nDistributed by: Paramount Pictures\nRelease dates: \n  March 15, 1972 (New York City)\n  March 24, 1972 (United States)\nRunning time: 175 minutes\nCountry: United States\nLanguage: English\nSubtitles: English\n  Track 1 - (Italian speaking parts only!)\n  Track 2 - (full)\nIMDB Rating: 9.2\n\n\nGeneral:\n\nComplete name : The Godfather (1972).m4v\nFormat : MPEG-4\nFormat profile : Base Media / Version 2\nCodec ID : mp42\nFile size : 1.91 GiB\nDuration : 2h 57min\nOverall bit rate mode : Variable\nOverall bit rate : 1 546 Kbps\nEncoded date : UTC 2036-02-06 06:28:16\nTagged date : UTC 2036-02-06 06:28:16\nWriting application : HandBrake 0.10.2\n\n\nVideo:\n\nID : 1\nFormat : AVC\nFormat/Info : Advanced Video Codec\nFormat profile : &lt;a class=&quot;__cf_email__&quot; href=&quot;/cdn-cgi/l/email-protection&quot; data-cfemail=&quot;c28aaba5aa828ef6ecf3&quot;&gt;[email&amp;#160;protected]&lt;/a&gt;&lt;script data-cfhash='f9e31' type=&quot;text/javascript&quot;&gt;\n/* &lt;![CDATA[ */!function(){try{var t=&quot;currentScript&quot;in document?document.currentScript:function(){for(var t=document.getElementsByTagName(&quot;script&quot;),e=t.length;e--;)if(t[e].getAttribute(&quot;data-cfhash&quot;))return t[e]}();if(t&amp;&amp;t.previousSibling){var e,r,n,i,c=t.previousSibling,a=c.getAttribute(&quot;data-cfemail&quot;);if(a){for(e=&quot;&quot;,r=parseInt(a.substr(0,2),16),n=2;a.length-n;n+=2)i=parseInt(a.substr(n,2),16)^r,e+=String.fromCharCode(i);e=document.createTextNode(e),c.parentNode.replaceChild(e,c)}t.parentNode.removeChild(t);}}catch(u){}}()/* ]]&gt; */&lt;/script&gt;\nFormat settings, CABAC : Yes\nFormat settings, ReFrames : 5 frames\nCodec ID : avc1\nCodec ID/Info : Advanced Video Coding\nDuration : 2h 57min\nBit rate : 1 379 Kbps\nWidth : 1 280 pixels\nHeight : 720 pixels\nDisplay aspect ratio : 16:9\nFrame rate mode : Variable\nFrame rate : 23.976 fps\nMinimum frame rate : 5.994 fps\nMaximum frame rate : 23.981 fps\nColor space : YUV\nChroma subsampling : 4:2:0\nBit depth : 8 bits\nScan type : Progressive\nBits/(Pixel*Frame) : 0.062\nStream size : 1.71 GiB (89%)\nWriting library : x264 core 142 r2479 dd79a61\nEncoding settings : (see info file for details)\nEncoded date : UTC 2036-02-06 06:28:16\nTagged date : UTC 2036-02-06 06:28:16\nColor primaries : BT.709\nTransfer characteristics : BT.709\nMatrix coefficients : BT.709\n\n\nAudio:\n\nID : 2\nFormat : AAC\nFormat/Info : Advanced Audio Codec\nFormat profile : LC\nCodec ID : 40\nDuration : 2h 57min\nBit rate mode : Variable\nBit rate : 160 Kbps\nChannel(s) : 2 channels\nChannel positions : Front: L R\nSampling rate : 48.0 KHz\nCompression mode : Lossy\nStream size : 203 MiB (10%)","torrent":{"xt":"urn:btih:140f64d4da5858d23db38ba0dce4578bace55c3b","amp;dn":"The+Godfather+-+%5Bcrime%5D+-+%281972%29+-+BDRip+x264+%28subs%29+-+%5B%3DFaith%3D%5D","amp;tr":["udp%3A%2F%2Ftracker.openbittorrent.com%3A80","udp%3A%2F%2Fopen.demonii.com%3A1337","udp%3A%2F%2Ftracker.coppersurfer.tk%3A6969","udp%3A%2F%2Fexodus.desync.com%3A6969"],"infoHash":"140f64d4da5858d23db38ba0dce4578bace55c3b","infoHashBuffer":{"type":"Buffer","data":[20,15,100,212,218,88,88,210,61,179,139,160,220,228,87,139,172,229,92,59]},"announce":[],"urlList":[]}}